<?xml version="1.0" standalone="no"?>
<!DOCTYPE svg PUBLIC "-//W3C//DTD SVG 20010904//EN"
 "http://www.w3.org/TR/2001/REC-SVG-20010904/DTD/svg10.dtd">
<svg version="1.0" xmlns="http://www.w3.org/2000/svg"
 width="512.000000pt" height="512.000000pt" viewBox="0 0 512.000000 512.000000"
 preserveAspectRatio="xMidYMid meet">

<g transform="translate(0.000000,512.000000) scale(0.100000,-0.100000)"
fill="#000000" stroke="none">
<path d="M1405 4948 c-27 -5 -86 -27 -131 -48 -152 -73 -274 -232 -303 -394
-7 -39 -11 -319 -11 -803 l0 -743 -96 0 c-128 0 -168 -13 -229 -75 -68 -68
-75 -95 -75 -309 l0 -176 80 0 80 0 0 175 c0 239 -15 225 240 225 189 0 191 0
215 -25 l25 -24 0 -736 0 -735 -240 0 -240 0 0 320 0 320 -80 0 -80 0 0 -535
0 -536 25 -24 24 -25 456 0 455 0 0 -295 0 -296 25 -24 24 -25 991 0 991 0 24
25 25 24 0 296 0 295 455 0 456 0 24 25 25 24 0 952 c0 706 -3 962 -12 991 -6
22 -31 62 -55 88 -57 63 -106 80 -235 80 l-98 0 0 743 c0 484 -4 764 -11 803
-17 97 -78 211 -154 287 -76 77 -190 138 -289 156 -76 14 -2228 13 -2301 -1z
m2357 -185 c93 -44 151 -100 196 -191 l37 -76 3 -768 c2 -711 1 -768 -14 -768
-77 0 -189 -88 -212 -166 -8 -29 -12 -143 -12 -380 l0 -339 -1200 0 -1200 0 0
339 c0 233 -4 351 -12 378 -17 59 -88 133 -145 152 -26 9 -55 16 -65 16 -18 0
-18 26 -16 768 l3 767 32 67 c17 37 50 87 72 111 44 48 135 101 197 116 23 5
502 9 1154 8 l1115 -2 67 -32z m613 -1988 l25 -24 0 -736 0 -735 -240 0 -240
0 0 735 0 736 25 24 c24 25 26 25 215 25 189 0 191 0 215 -25z m-640 -880 l25
-24 0 -456 0 -455 -1200 0 -1200 0 0 455 0 456 25 24 24 25 1151 0 1151 0 24
-25z m-2535 -855 l0 -80 -240 0 -240 0 0 80 0 80 240 0 240 0 0 -80z m3200 0
l0 -80 -240 0 -240 0 0 80 0 80 240 0 240 0 0 -80z m-960 -320 l0 -80 -160 0
-160 0 0 -80 0 -80 160 0 160 0 0 -80 0 -80 -880 0 -880 0 0 80 0 80 480 0
480 0 0 80 0 80 -480 0 -480 0 0 80 0 80 880 0 880 0 0 -80z"/>
<path d="M2800 560 l0 -80 80 0 80 0 0 80 0 80 -80 0 -80 0 0 -80z"/>
<path d="M560 2160 l0 -80 80 0 80 0 0 80 0 80 -80 0 -80 0 0 -80z"/>
</g>
</svg>
